<svg width="24" height="24" viewBox="0 0 24 24" fill="none" xmlns="http://www.w3.org/2000/svg">
    <path d="M8.7 14.7C8.50743 14.8444 8.26922 14.9146 8.02911 14.8975C7.789 14.8804 7.5631 14.7773 7.39289 14.6071C7.22268 14.4369 7.11958 14.211 7.10252 13.9709C7.08545 13.7308 7.15557 13.4926 7.3 13.3L11.3 9.30002C11.4869 9.11679 11.7382 9.01416 12 9.01416C12.2618 9.01416 12.5131 9.11679 12.7 9.30002L16.7 13.3C16.8444 13.4926 16.9145 13.7308 16.8975 13.9709C16.8804 14.211 16.7773 14.4369 16.6071 14.6071C16.4369 14.7773 16.211 14.8804 15.9709 14.8975C15.7308 14.9146 15.4926 14.8444 15.3 14.7L12 11.42L8.7 14.72V14.7Z" fill="#2D3748"/>
</svg>
