<svg width="24" height="24" viewBox="0 0 24 24" fill="none" xmlns="http://www.w3.org/2000/svg">
<path fill-rule="evenodd" clip-rule="evenodd" d="M10.5856 12.0001L5.63589 7.05037C5.44836 6.86283 5.343 6.60848 5.343 6.34326C5.343 6.07805 5.44836 5.82369 5.63589 5.63616C5.82343 5.44862 6.07778 5.34326 6.343 5.34326C6.60822 5.34326 6.86257 5.44862 7.05011 5.63616L11.9998 10.5859L16.9495 5.63618C17.137 5.44865 17.3914 5.34329 17.6566 5.34329C17.9218 5.34329 18.1762 5.44865 18.3637 5.63618C18.5512 5.82372 18.6566 6.07807 18.6566 6.34329C18.6566 6.60851 18.5512 6.86286 18.3637 7.0504L13.414 12.0001L18.3638 16.9499C18.5514 17.1374 18.6567 17.3918 18.6567 17.657C18.6567 17.9222 18.5514 18.1765 18.3638 18.3641C18.1763 18.5516 17.9219 18.657 17.6567 18.657C17.3915 18.657 17.1371 18.5516 16.9496 18.3641L11.9998 13.4143L7.05 18.3641C6.86247 18.5516 6.60811 18.657 6.3429 18.657C6.07768 18.657 5.82332 18.5516 5.63579 18.3641C5.44825 18.1766 5.3429 17.9222 5.3429 17.657C5.3429 17.3918 5.44825 17.1374 5.63579 16.9499L10.5856 12.0001Z" fill="#2D3748"/>
</svg>
