<svg width="15" height="14" viewBox="0 0 15 14" fill="none" xmlns="http://www.w3.org/2000/svg">
    <path d="M3.46678 13.6533C3.35637 13.7114 3.23189 13.7373 3.10749 13.7281C2.98309 13.7189 2.86376 13.6751 2.76306 13.6014C2.66236 13.5278 2.58434 13.4274 2.53785 13.3117C2.49137 13.1959 2.47829 13.0695 2.50011 12.9466L3.18678 8.92664L0.266775 6.08664C0.176772 5.99967 0.113066 5.88913 0.0829473 5.76765C0.0528282 5.64617 0.0575121 5.51867 0.096463 5.39973C0.135414 5.2808 0.207059 5.17522 0.3032 5.09509C0.399342 5.01497 0.516097 4.96352 0.640109 4.94664L4.67344 4.35997L6.47344 0.70664C6.52803 0.593926 6.61327 0.498868 6.71938 0.432356C6.8255 0.365843 6.9482 0.330566 7.07344 0.330566C7.19868 0.330566 7.32138 0.365843 7.4275 0.432356C7.53362 0.498868 7.61885 0.593926 7.67344 0.70664L9.47344 4.35997L13.5134 4.94664C13.6355 4.96548 13.75 5.01787 13.8441 5.09798C13.9381 5.17809 14.008 5.28275 14.0461 5.4003C14.0841 5.51784 14.0887 5.64364 14.0594 5.76366C14.0301 5.88367 13.968 5.99319 13.8801 6.07997L10.9601 8.92664L11.6534 12.9466C11.6762 13.0704 11.6635 13.198 11.6168 13.3148C11.57 13.4316 11.4912 13.5328 11.3894 13.6067C11.2876 13.6806 11.167 13.7242 11.0415 13.7324C10.916 13.7407 10.7907 13.7132 10.6801 13.6533L7.08011 11.7533L3.46678 13.6533ZM6.76678 10.4066C6.86239 10.3564 6.96877 10.3302 7.07678 10.3302C7.18478 10.3302 7.29116 10.3564 7.38678 10.4066L10.1068 11.84L9.58677 8.80664C9.56928 8.70051 9.57773 8.59172 9.6114 8.48956C9.64506 8.38741 9.70295 8.29491 9.78011 8.21997L11.9801 6.07331L8.94011 5.62664C8.83277 5.6123 8.73053 5.57202 8.64225 5.5093C8.55397 5.44657 8.4823 5.36329 8.43344 5.26664L7.07344 2.50664L5.71344 5.26664C5.66521 5.36244 5.59457 5.44519 5.50752 5.50786C5.42048 5.57054 5.3196 5.61128 5.21344 5.62664L2.16678 6.07331L4.36678 8.21997C4.44513 8.29426 4.50426 8.38646 4.5391 8.48865C4.57394 8.59084 4.58344 8.69997 4.56678 8.80664L4.04011 11.84L6.76678 10.4066Z" fill="#CBD5E0"/>
</svg>
