<svg width="8" height="14" viewBox="0 0 8 14" fill="none" xmlns="http://www.w3.org/2000/svg">
    <path d="M7.59994 11.4C7.79251 11.6568 7.88601 11.9744 7.86325 12.2945C7.8405 12.6147 7.70303 12.9159 7.47609 13.1428C7.24914 13.3698 6.94794 13.5072 6.62779 13.53C6.30765 13.5527 5.99004 13.4592 5.73328 13.2667L0.399942 7.93333C0.155639 7.68409 0.0187988 7.349 0.0187988 6.99999C0.0187988 6.65099 0.155639 6.3159 0.399942 6.06666L5.73328 0.733328C5.99004 0.540756 6.30765 0.447264 6.62779 0.470016C6.94794 0.492768 7.24914 0.630237 7.47609 0.857186C7.70303 1.08413 7.8405 1.38533 7.86325 1.70548C7.88601 2.02562 7.79251 2.34323 7.59994 2.59999L3.22661 6.99999L7.62661 11.4H7.59994Z" fill="white"/>
</svg>
