<svg width="40" height="40" viewBox="0 0 40 40" fill="none" xmlns="http://www.w3.org/2000/svg">
    <rect x="0.5" y="0.5" width="39" height="39" rx="3.5" stroke="#2D3748"/>
    <path d="M20.6333 14.1333C21.5811 13.2501 22.8348 12.7693 24.1301 12.7922C25.4254 12.815 26.6613 13.3398 27.5774 14.2558C28.4935 15.1719 29.0183 16.4078 29.0411 17.7032C29.064 18.9985 28.5832 20.2522 27.7 21.2L20.5916 28.3167C20.5142 28.3948 20.422 28.4568 20.3204 28.4991C20.2189 28.5414 20.11 28.5632 20 28.5632C19.8899 28.5632 19.781 28.5414 19.6795 28.4991C19.5779 28.4568 19.4858 28.3948 19.4083 28.3167L12.3 21.2C11.4168 20.2522 10.9359 18.9985 10.9588 17.7032C10.9816 16.4078 11.5064 15.1719 12.4225 14.2558C13.3386 13.3398 14.5745 12.815 15.8698 12.7922C17.1651 12.7693 18.4188 13.2501 19.3666 14.1333L20 14.7583L20.6333 14.1333ZM26.525 20.025C27.1504 19.3995 27.5018 18.5512 27.5018 17.6667C27.5018 16.7821 27.1504 15.9338 26.525 15.3083C26.2153 14.9986 25.8476 14.753 25.4429 14.5853C25.0383 14.4177 24.6046 14.3315 24.1666 14.3315C23.2821 14.3315 22.4338 14.6829 21.8083 15.3083L20.5916 16.5333C20.5142 16.6114 20.422 16.6734 20.3204 16.7157C20.2189 16.758 20.11 16.7798 20 16.7798C19.8899 16.7798 19.781 16.758 19.6795 16.7157C19.5779 16.6734 19.4858 16.6114 19.4083 16.5333L18.1916 15.3083C17.5662 14.6829 16.7178 14.3315 15.8333 14.3315C14.9487 14.3315 14.1004 14.6829 13.475 15.3083C12.8495 15.9338 12.4981 16.7821 12.4981 17.6667C12.4981 18.5512 12.8495 19.3995 13.475 20.025L20 26.55L26.525 20.025Z" fill="#2D3748"/>
</svg>
