<svg width="24" height="24" viewBox="0 0 24 24" fill="none" xmlns="http://www.w3.org/2000/svg">
    <path fill-rule="evenodd" clip-rule="evenodd" d="M10.5856 11.9999L5.63589 7.05023C5.44836 6.8627 5.343 6.60834 5.343 6.34312C5.343 6.07791 5.44836 5.82355 5.63589 5.63602C5.82343 5.44848 6.07778 5.34312 6.343 5.34312C6.60822 5.34312 6.86257 5.44848 7.05011 5.63602L11.9998 10.5857L16.9495 5.63605C17.137 5.44851 17.3914 5.34315 17.6566 5.34315C17.9218 5.34315 18.1762 5.44851 18.3637 5.63605C18.5512 5.82358 18.6566 6.07794 18.6566 6.34315C18.6566 6.60837 18.5512 6.86272 18.3637 7.05026L13.414 11.9999L18.3638 16.9497C18.5514 17.1373 18.6567 17.3916 18.6567 17.6568C18.6567 17.922 18.5514 18.1764 18.3638 18.3639C18.1763 18.5515 17.9219 18.6568 17.6567 18.6568C17.3915 18.6568 17.1371 18.5515 16.9496 18.3639L11.9998 13.4142L7.05 18.364C6.86247 18.5515 6.60811 18.6569 6.3429 18.6569C6.07768 18.6569 5.82332 18.5515 5.63579 18.364C5.44825 18.1764 5.3429 17.9221 5.3429 17.6569C5.3429 17.3916 5.44825 17.1373 5.63579 16.9498L10.5856 11.9999Z" fill="white"/>
</svg>
