<svg width="16" height="16" viewBox="0 0 16 16" fill="none" xmlns="http://www.w3.org/2000/svg">
    <path d="M4.06675 14.6533C3.95635 14.7114 3.83187 14.7373 3.70747 14.7281C3.58307 14.7189 3.46374 14.6751 3.36304 14.6014C3.26234 14.5278 3.18431 14.4274 3.13783 14.3117C3.09134 14.1959 3.07827 14.0695 3.10008 13.9466L3.78675 9.92664L0.866751 7.08664C0.776747 6.99967 0.713042 6.88913 0.682923 6.76765C0.652804 6.64617 0.657488 6.51867 0.696439 6.39973C0.735389 6.2808 0.807034 6.17522 0.903176 6.09509C0.999317 6.01497 1.11607 5.96352 1.24008 5.94664L5.27342 5.35997L7.07342 1.70664C7.12801 1.59393 7.21324 1.49887 7.31936 1.43236C7.42547 1.36584 7.54818 1.33057 7.67342 1.33057C7.79866 1.33057 7.92136 1.36584 8.02748 1.43236C8.13359 1.49887 8.21883 1.59393 8.27342 1.70664L10.0734 5.35997L14.1134 5.94664C14.2355 5.96548 14.35 6.01787 14.444 6.09798C14.5381 6.17809 14.608 6.28275 14.6461 6.4003C14.6841 6.51784 14.6887 6.64364 14.6594 6.76366C14.6301 6.88367 14.568 6.99319 14.4801 7.07997L11.5601 9.92664L12.2534 13.9466C12.2762 14.0704 12.2634 14.198 12.2167 14.3148C12.17 14.4316 12.0912 14.5328 11.9894 14.6067C11.8876 14.6806 11.767 14.7242 11.6415 14.7324C11.516 14.7407 11.3907 14.7132 11.2801 14.6533L7.68008 12.7533L4.06675 14.6533Z" fill="#F6E05E"/>
</svg>
