<?xml version="1.0" encoding="UTF-8" standalone="no"?>
<!DOCTYPE svg PUBLIC "-//W3C//DTD SVG 1.1//EN" "http://www.w3.org/Graphics/SVG/1.1/DTD/svg11.dtd">
<svg version="1.1" xmlns="http://www.w3.org/2000/svg" xmlns:xlink="http://www.w3.org/1999/xlink" preserveAspectRatio="xMidYMid meet" viewBox="157.9730965359592 293.2414278178302 133.7021276595745 85.02127659574467" width="129.7" height="81.02"><defs><path d="M272.66 294.25L272.99 294.27L273.32 294.29L273.65 294.32L273.98 294.36L274.31 294.4L274.64 294.44L274.97 294.5L275.29 294.56L275.62 294.62L275.94 294.69L276.26 294.77L276.58 294.85L276.9 294.94L277.22 295.04L277.53 295.14L277.84 295.24L278.15 295.36L278.46 295.48L278.77 295.6L279.07 295.73L279.37 295.87L279.67 296.01L279.96 296.15L280.25 296.31L280.54 296.46L280.82 296.63L281.1 296.8L281.38 296.97L281.65 297.15L281.92 297.34L282.18 297.53L282.44 297.72L282.7 297.92L282.95 298.13L283.2 298.34L283.44 298.56L283.68 298.78L283.91 299.01L284.14 299.24L284.36 299.47L284.58 299.71L284.79 299.96L284.99 300.2L285.19 300.45L285.39 300.71L285.58 300.96L285.77 301.22L285.95 301.49L286.12 301.75L286.29 302.02L286.45 302.29L286.61 302.57L286.76 302.85L286.91 303.13L287.05 303.41L287.19 303.7L287.32 303.99L287.44 304.28L287.56 304.58L287.67 304.88L287.78 305.18L287.88 305.48L287.98 305.78L288.06 306.09L288.15 306.4L288.22 306.71L288.3 307.02L288.36 307.34L288.42 307.65L288.47 307.97L288.52 308.29L288.56 308.62L288.6 308.94L288.62 309.27L288.65 309.59L288.66 309.92L288.67 310.25L288.68 310.58L288.68 358.92L288.67 359.25L288.66 359.58L288.65 359.91L288.62 360.24L288.6 360.56L288.56 360.89L288.52 361.21L288.47 361.53L288.42 361.85L288.36 362.17L288.3 362.48L288.22 362.79L288.15 363.11L288.06 363.41L287.98 363.72L287.88 364.03L287.78 364.33L287.67 364.63L287.56 364.93L287.44 365.22L287.32 365.51L287.19 365.8L287.05 366.09L286.91 366.37L286.76 366.65L286.61 366.93L286.45 367.21L286.29 367.48L286.12 367.75L285.95 368.02L285.77 368.28L285.58 368.54L285.39 368.8L285.19 369.05L284.99 369.3L284.79 369.55L284.58 369.79L284.36 370.03L284.14 370.27L283.91 370.5L283.68 370.72L283.44 370.95L283.2 371.16L282.96 371.37L282.71 371.58L282.46 371.78L282.21 371.98L281.95 372.17L281.69 372.35L281.43 372.53L281.16 372.71L280.89 372.88L280.62 373.04L280.35 373.2L280.07 373.35L279.79 373.5L279.5 373.64L279.21 373.77L278.93 373.9L278.63 374.03L278.34 374.15L278.04 374.26L277.74 374.37L277.44 374.47L277.13 374.56L276.83 374.65L276.52 374.74L276.21 374.81L275.89 374.88L275.58 374.95L275.26 375.01L274.94 375.06L274.62 375.11L274.3 375.15L273.98 375.18L273.65 375.21L273.32 375.23L273 375.25L272.67 375.26L272.33 375.26L175.31 375.26L174.98 375.26L174.65 375.25L174.32 375.23L174 375.21L173.67 375.18L173.35 375.15L173.03 375.11L172.7 375.06L172.39 375.01L172.07 374.95L171.75 374.88L171.44 374.81L171.13 374.74L170.82 374.65L170.51 374.56L170.21 374.47L169.91 374.37L169.61 374.26L169.31 374.15L169.02 374.03L168.72 373.9L168.43 373.77L168.15 373.64L167.86 373.5L167.58 373.35L167.3 373.2L167.03 373.04L166.75 372.88L166.48 372.71L166.22 372.53L165.95 372.35L165.69 372.17L165.44 371.98L165.18 371.78L164.93 371.58L164.69 371.37L164.45 371.16L164.21 370.95L163.97 370.72L163.74 370.5L163.51 370.27L163.29 370.03L163.07 369.79L162.86 369.55L162.65 369.3L162.45 369.05L162.26 368.8L162.07 368.54L161.88 368.28L161.7 368.02L161.53 367.75L161.36 367.48L161.19 367.21L161.04 366.93L160.88 366.65L160.74 366.37L160.6 366.09L160.46 365.8L160.33 365.51L160.21 365.22L160.09 364.93L159.98 364.63L159.87 364.33L159.77 364.03L159.67 363.72L159.58 363.41L159.5 363.11L159.42 362.79L159.35 362.48L159.29 362.17L159.23 361.85L159.17 361.53L159.13 361.21L159.09 360.89L159.05 360.56L159.02 360.24L159 359.91L158.99 359.58L158.98 359.25L158.97 358.92L158.97 310.58L158.98 310.25L158.99 309.92L159 309.59L159.02 309.27L159.05 308.94L159.09 308.62L159.13 308.29L159.17 307.97L159.23 307.65L159.29 307.34L159.35 307.02L159.42 306.71L159.5 306.4L159.58 306.09L159.67 305.78L159.77 305.48L159.87 305.18L159.98 304.88L160.09 304.58L160.21 304.28L160.33 303.99L160.46 303.7L160.6 303.41L160.74 303.13L160.88 302.85L161.04 302.57L161.19 302.29L161.36 302.02L161.53 301.75L161.7 301.49L161.88 301.22L162.07 300.96L162.26 300.71L162.45 300.45L162.65 300.2L162.86 299.96L163.07 299.71L163.29 299.47L163.51 299.24L163.74 299.01L163.97 298.78L164.21 298.56L164.45 298.34L164.69 298.13L164.93 297.92L165.18 297.72L165.44 297.53L165.69 297.34L165.95 297.15L166.22 296.97L166.48 296.8L166.75 296.63L167.03 296.46L167.3 296.31L167.58 296.15L167.86 296.01L168.15 295.87L168.43 295.73L168.72 295.6L169.02 295.48L169.31 295.36L169.61 295.24L169.91 295.14L170.21 295.04L170.51 294.94L170.82 294.85L171.13 294.77L171.44 294.69L171.75 294.62L172.07 294.56L172.39 294.5L172.7 294.44L173.03 294.4L173.35 294.36L173.67 294.32L174 294.29L174.32 294.27L174.65 294.25L174.98 294.24L175.31 294.24L271.99 294.24L272.33 294.24L272.66 294.25ZM175.06 297.65L174.8 297.66L174.55 297.67L174.29 297.69L174.04 297.71L173.79 297.74L173.53 297.77L173.28 297.81L173.03 297.85L172.78 297.9L172.53 297.95L172.28 298L172.03 298.07L171.78 298.13L171.54 298.2L171.29 298.28L171.05 298.36L170.81 298.44L170.57 298.53L170.33 298.62L170.1 298.72L169.87 298.82L169.64 298.93L169.41 299.04L169.18 299.16L168.96 299.28L168.73 299.4L168.51 299.53L168.3 299.66L168.08 299.8L167.87 299.94L167.67 300.09L167.46 300.23L167.26 300.39L167.06 300.55L166.87 300.71L166.68 300.87L166.49 301.04L166.3 301.21L166.12 301.39L165.95 301.6L165.77 301.8L165.6 302.01L165.44 302.22L165.28 302.43L165.12 302.64L164.97 302.85L164.82 303.07L164.67 303.28L164.53 303.5L164.39 303.71L164.26 303.93L164.13 304.15L164.01 304.38L163.89 304.6L163.77 304.82L163.66 305.05L163.56 305.27L163.45 305.5L163.36 305.73L163.26 305.96L163.17 306.19L163.09 306.43L163.01 306.66L162.93 306.9L162.86 307.13L162.8 307.37L162.74 307.61L162.68 307.85L162.63 308.09L162.58 308.34L162.54 308.58L162.5 308.83L162.47 309.07L162.44 309.32L162.42 309.57L162.4 309.82L162.39 310.07L162.38 310.33L162.38 310.58L162.38 358.92L162.38 359.18L162.39 359.43L162.4 359.69L162.42 359.94L162.44 360.2L162.47 360.45L162.5 360.7L162.54 360.96L162.58 361.21L162.63 361.46L162.68 361.71L162.74 361.96L162.8 362.21L162.86 362.45L162.93 362.7L163.01 362.94L163.09 363.18L163.17 363.42L163.26 363.66L163.36 363.9L163.45 364.14L163.56 364.37L163.66 364.6L163.77 364.83L163.89 365.06L164.01 365.28L164.13 365.5L164.26 365.72L164.39 365.94L164.53 366.15L164.67 366.36L164.82 366.57L164.97 366.77L165.12 366.98L165.28 367.17L165.44 367.37L165.6 367.56L165.77 367.75L165.95 367.93L166.12 368.11L166.33 368.29L166.53 368.46L166.74 368.63L166.95 368.8L167.16 368.96L167.37 369.12L167.58 369.27L167.8 369.42L168.01 369.56L168.23 369.7L168.45 369.84L168.67 369.97L168.89 370.1L169.11 370.23L169.33 370.35L169.55 370.46L169.78 370.57L170.01 370.68L170.23 370.78L170.46 370.88L170.69 370.97L170.92 371.06L171.16 371.15L171.39 371.23L171.63 371.3L171.86 371.37L172.1 371.44L172.34 371.5L172.58 371.56L172.82 371.61L173.07 371.66L173.31 371.7L173.56 371.74L173.8 371.77L174.05 371.8L174.3 371.82L174.55 371.84L174.81 371.85L175.06 371.86L175.31 371.86L271.99 371.86L272.25 371.86L272.5 371.85L272.76 371.84L273.01 371.82L273.27 371.8L273.52 371.77L273.78 371.74L274.03 371.7L274.28 371.66L274.53 371.61L274.78 371.56L275.03 371.5L275.28 371.44L275.53 371.37L275.77 371.3L276.01 371.23L276.26 371.15L276.5 371.06L276.74 370.97L276.97 370.88L277.21 370.78L277.44 370.68L277.67 370.57L277.9 370.46L278.13 370.35L278.35 370.23L278.57 370.1L278.79 369.97L279.01 369.84L279.22 369.7L279.43 369.56L279.64 369.42L279.85 369.27L280.05 369.12L280.25 368.96L280.44 368.8L280.63 368.63L280.82 368.46L281.01 368.29L281.19 368.11L281.3 367.98L281.42 367.83L281.54 367.68L281.65 367.53L281.77 367.37L281.88 367.21L281.99 367.05L282.1 366.87L282.21 366.7L282.31 366.52L282.42 366.33L282.52 366.14L282.63 365.95L282.73 365.75L282.83 365.54L282.93 365.34L283.03 365.12L283.12 364.9L283.22 364.68L283.31 364.45L283.41 364.22L283.5 363.99L283.59 363.74L283.68 363.5L283.77 363.25L283.85 362.99L283.94 362.73L284.02 362.47L284.1 362.2L284.19 361.92L284.27 361.64L284.35 361.36L284.42 361.07L284.5 360.78L284.57 360.48L284.65 360.18L284.72 359.87L284.79 359.56L284.86 359.24L284.93 358.92L284.93 310.58L284.93 310.33L284.92 310.07L284.91 309.82L284.89 309.56L284.87 309.31L284.84 309.05L284.81 308.8L284.77 308.55L284.73 308.3L284.69 308.04L284.64 307.79L284.58 307.55L284.52 307.3L284.46 307.05L284.39 306.81L284.32 306.56L284.24 306.32L284.17 306.08L284.08 305.84L283.99 305.6L283.9 305.37L283.81 305.13L283.71 304.9L283.61 304.67L283.5 304.45L283.39 304.22L283.28 304L283.16 303.78L283.04 303.57L282.92 303.35L282.79 303.14L282.66 302.93L282.53 302.73L282.4 302.53L282.26 302.33L282.12 302.13L281.97 301.94L281.83 301.76L281.68 301.57L281.53 301.39L281.32 301.21L281.12 301.04L280.91 300.87L280.7 300.71L280.49 300.55L280.28 300.39L280.07 300.23L279.85 300.09L279.64 299.94L279.42 299.8L279.2 299.66L278.98 299.53L278.76 299.4L278.54 299.28L278.32 299.16L278.09 299.04L277.87 298.93L277.64 298.82L277.42 298.72L277.19 298.62L276.96 298.53L276.72 298.44L276.49 298.36L276.26 298.28L276.02 298.2L275.78 298.13L275.55 298.07L275.31 298L275.07 297.95L274.82 297.9L274.58 297.85L274.34 297.81L274.09 297.77L273.84 297.74L273.6 297.71L273.35 297.69L273.1 297.67L272.84 297.66L272.59 297.65L272.33 297.65L175.31 297.65L175.06 297.65ZM233.49 322.51L233.81 322.52L234.13 322.54L234.45 322.57L234.77 322.6L235.09 322.64L235.4 322.68L235.71 322.73L236.02 322.78L236.33 322.84L236.63 322.9L236.93 322.97L237.22 323.05L237.52 323.13L237.8 323.22L238.08 323.31L238.36 323.41L238.63 323.52L237.61 328.62L237.34 328.52L237.06 328.41L236.78 328.31L236.49 328.2L236.2 328.11L235.91 328.01L235.61 327.92L235.31 327.84L235 327.77L234.69 327.7L234.38 327.64L234.06 327.59L233.75 327.55L233.43 327.53L233.11 327.51L232.79 327.51L232.47 327.53L232.15 327.56L231.82 327.6L231.51 327.66L231.22 327.73L230.96 327.81L230.71 327.9L230.48 327.99L230.28 328.1L230.09 328.21L229.92 328.32L229.77 328.44L229.63 328.56L229.51 328.68L229.41 328.81L229.33 328.93L229.25 329.06L229.2 329.18L229.15 329.3L229.12 329.42L229.11 329.54L229.1 329.65L229.12 329.94L229.2 330.26L229.31 330.6L229.48 330.96L229.69 331.34L229.95 331.74L230.26 332.16L230.61 332.6L231.01 333.07L231.46 333.55L231.95 334.05L232.5 334.58L233.08 335.13L233.72 335.69L234.41 336.28L235.14 336.89L235.91 337.52L236.74 338.17L237.61 338.84L237.58 339.63L237.48 340.38L237.31 341.1L237.08 341.78L236.79 342.43L236.44 343.03L236.03 343.6L235.57 344.12L235.04 344.61L234.46 345.05L233.83 345.45L233.15 345.81L232.42 346.12L231.64 346.39L230.81 346.61L229.94 346.78L229.02 346.91L228.06 346.98L227.06 347.01L226.68 347L226.31 347L225.93 346.98L225.56 346.96L225.18 346.93L224.81 346.89L224.44 346.85L224.07 346.8L223.71 346.74L223.35 346.67L222.99 346.6L222.63 346.51L222.28 346.42L221.93 346.32L221.58 346.2L221.24 346.08L220.91 345.95L220.57 345.8L220.25 345.65L221.27 340.88L221.55 341.04L221.83 341.18L222.12 341.31L222.43 341.44L222.74 341.55L223.06 341.65L223.38 341.75L223.71 341.83L224.04 341.91L224.38 341.98L224.71 342.03L225.05 342.09L225.39 342.13L225.73 342.16L226.07 342.19L226.41 342.21L226.74 342.23L227.07 342.24L227.4 342.24L227.72 342.24L228.03 342.22L228.34 342.19L228.63 342.15L228.92 342.09L229.19 342.03L229.45 341.95L229.7 341.85L229.93 341.75L230.14 341.63L230.34 341.49L230.52 341.34L230.68 341.18L230.81 341L230.93 340.8L231.02 340.59L231.09 340.36L231.13 340.12L231.14 339.86L231.14 339.7L231.12 339.54L231.09 339.37L231.04 339.21L230.98 339.05L230.91 338.89L230.81 338.73L230.7 338.57L230.58 338.41L230.43 338.25L230.26 338.08L230.07 337.92L229.86 337.76L229.63 337.6L229.37 337.44L229.08 337.28L228.78 337.12L228.44 336.96L228.08 336.79L227.7 336.62L227.31 336.44L226.91 336.23L226.52 336.01L226.12 335.77L225.74 335.51L225.36 335.23L224.99 334.94L224.63 334.62L224.3 334.28L223.98 333.93L223.69 333.55L223.43 333.15L223.2 332.74L223.01 332.3L222.85 331.84L222.73 331.36L222.66 330.85L222.63 330.33L222.67 329.59L222.77 328.88L222.93 328.2L223.16 327.56L223.44 326.94L223.79 326.36L224.19 325.82L224.65 325.31L225.17 324.84L225.73 324.41L226.34 324.02L227.01 323.68L227.72 323.37L228.47 323.11L229.27 322.89L230.1 322.72L230.98 322.6L231.9 322.52L232.85 322.5L233.17 322.5L233.49 322.51ZM210.38 346.67L215.14 323.18L221.27 323.18L216.16 346.67L210.38 346.67ZM253.61 346.67L252.93 343.26L245.1 343.26L243.74 346.67L237.27 346.67L246.12 324.88L246.19 324.76L246.25 324.64L246.31 324.53L246.38 324.43L246.44 324.33L246.51 324.24L246.57 324.15L246.63 324.07L246.7 323.99L246.76 323.92L246.82 323.85L246.89 323.78L246.95 323.71L247.02 323.65L247.08 323.58L247.14 323.52L247.23 323.48L247.32 323.44L247.41 323.4L247.51 323.37L247.6 323.34L247.7 323.31L247.8 323.29L247.91 323.26L248.02 323.24L248.13 323.23L248.24 323.21L248.36 323.2L248.47 323.19L248.6 323.18L248.72 323.18L248.85 323.18L254.29 323.18L259.06 346.67L253.61 346.67ZM194.56 323.19L194.64 323.2L194.72 323.21L194.8 323.23L194.87 323.25L194.95 323.27L195.02 323.3L195.09 323.33L195.16 323.36L195.23 323.39L195.3 323.43L195.37 323.46L195.44 323.5L195.51 323.54L195.58 323.59L195.66 323.63L195.74 323.67L195.82 323.72L195.9 323.77L195.99 323.81L196.08 323.86L196.17 323.91L196.26 323.96L196.34 324.02L196.42 324.08L196.49 324.14L196.56 324.21L196.63 324.28L196.69 324.35L196.74 324.42L196.8 324.5L196.85 324.58L196.89 324.66L196.93 324.75L196.97 324.83L197 324.92L197.02 325.01L197.05 325.1L197.07 325.19L197.08 325.28L197.09 325.38L197.1 325.47L197.1 325.56L199.82 339.18L205.95 323.18L212.76 323.18L202.89 346.67L196.42 346.67L191.65 327.94L191.65 327.85L191.65 327.77L191.65 327.68L191.65 327.6L191.65 327.53L191.65 327.46L191.64 327.39L191.64 327.32L191.63 327.26L191.62 327.19L191.61 327.14L191.6 327.08L191.58 327.02L191.57 326.97L191.55 326.92L191.52 326.87L191.5 326.82L191.47 326.77L191.43 326.72L191.4 326.67L191.36 326.63L191.31 326.58L191.27 326.54L191.22 326.5L191.17 326.46L191.13 326.43L191.08 326.39L191.03 326.37L190.99 326.34L190.94 326.31L190.9 326.29L190.85 326.26L190.76 326.22L190.71 326.19L190.66 326.17L190.62 326.14L190.57 326.12L190.52 326.09L190.48 326.06L190.43 326.02L190.39 325.99L190.34 325.95L190.29 325.9L190.01 325.76L189.74 325.63L189.46 325.5L189.18 325.38L188.9 325.26L188.62 325.14L188.34 325.03L188.06 324.92L187.79 324.82L187.51 324.72L187.23 324.62L186.95 324.53L186.67 324.45L186.39 324.36L186.11 324.29L185.84 324.21L185.56 324.14L185.28 324.08L185 324.02L184.72 323.96L184.44 323.91L184.16 323.86L184.16 323.18L194.38 323.18L194.47 323.18L194.56 323.19ZM251.57 338.16L249.53 329.31L246.46 338.16L251.57 338.16Z" id="a5ApIMW3R6"></path></defs><g><g><use xlink:href="#a5ApIMW3R6" opacity="1" fill="#31333e" fill-opacity="1"></use><g><use xlink:href="#a5ApIMW3R6" opacity="1" fill-opacity="0" stroke="#000000" stroke-width="1" stroke-opacity="0"></use></g></g></g></svg>