<svg width="1800" height="245" viewBox="0 0 1800 245" fill="none" xmlns="http://www.w3.org/2000/svg">
<path d="M1597 4.94263C1593.38 4.94263 1590.32 7.79365 1590.32 11.2149V234.737C1590.32 238.348 1593.18 241.009 1597 241.009C1600.44 241.009 1603.3 238.158 1603.3 234.737V11.2149C1603.3 7.79365 1600.44 4.94263 1597 4.94263Z" fill="url(#paint0_linear)"/>
<path d="M1552.15 4.94263C1548.34 4.94263 1545.47 7.79365 1545.47 11.2149V234.737C1545.47 238.348 1548.34 241.009 1552.15 241.009C1555.59 241.009 1558.45 238.158 1558.45 234.737V11.2149C1558.45 7.79365 1555.59 4.94263 1552.15 4.94263Z" fill="url(#paint1_linear)"/>
<path d="M580.554 151.106C576.737 149.965 573.302 151.866 572.348 155.477C557.844 201.284 515.094 231.885 466.047 231.885C401.35 231.885 356.119 186.839 356.119 122.405C356.119 58.1614 401.35 13.3049 466.047 13.3049C514.903 13.3049 557.653 43.9061 572.348 89.3328C573.302 92.9441 576.737 94.8448 580.554 93.8945C582.081 93.5143 583.608 92.564 584.371 91.0434C585.325 89.3328 585.707 87.2421 585.135 85.5314C568.913 35.1629 520.056 0 466.237 0C431.313 0 399.823 12.3545 377.685 34.7828C355.546 57.0209 343.523 88.0023 343.523 122.405C343.523 156.808 355.737 187.979 377.685 210.217C400.014 232.645 431.503 245 466.237 245C520.247 245 569.104 209.647 585.135 159.278C585.707 157.758 585.516 156.047 584.753 154.337C583.799 153.006 582.272 151.676 580.554 151.106Z" fill="url(#paint2_linear)"/>
<path d="M466.047 185.698C443.718 185.698 423.297 173.534 412.228 153.956C410.51 151.105 406.312 149.965 403.067 151.676L402.876 151.866C400.014 153.576 398.869 157.948 400.586 160.799C414.136 184.368 439.137 199.193 465.856 199.193C507.46 199.193 541.24 164.981 541.24 122.785C541.24 80.7796 507.46 46.7571 465.856 46.7571C438.946 46.7571 413.946 61.3925 400.586 84.771V84.9611C399.06 88.0022 400.014 91.6135 402.686 93.7043L403.258 94.0845C404.785 94.8447 406.693 95.0348 408.411 94.4646C410.129 93.8944 411.655 92.754 412.419 91.2334C423.297 71.6562 443.908 59.4917 466.047 59.4917C500.399 59.4917 528.262 87.8122 528.262 122.595C528.262 157.378 500.399 185.698 466.047 185.698Z" fill="url(#paint3_linear)"/>
<path d="M1271.04 95.035C1263.97 92.184 1258.06 89.7131 1255.2 87.6223C1251.57 84.7713 1249.47 80.5897 1249.28 76.5982C1248.9 65.004 1260.73 62.5331 1264.36 61.9629C1280.39 60.2522 1301.76 68.0451 1307.87 70.516C1310.16 71.4664 1312.45 71.2763 1314.17 69.9458C1316.08 68.6153 1317.03 66.1444 1316.84 63.8636C1316.65 61.5827 1315.12 59.8721 1312.83 58.7317C1296.42 51.8891 1283.25 49.0381 1269.89 49.0381C1268.17 49.0381 1266.27 49.0381 1264.17 49.2282C1247.56 49.9884 1235.73 62.343 1236.3 77.9287C1237.45 95.7953 1251.95 101.497 1268.56 108.15C1281.34 113.282 1295.85 118.984 1308.82 131.148C1322.76 143.883 1326 158.898 1326.19 169.162C1326.57 184.938 1320.27 200.904 1309.4 211.928C1290.12 231.125 1246.99 240.058 1197.75 214.589C1193.93 212.688 1190.31 214.589 1188.78 217.44C1187.06 220.671 1188.21 224.283 1191.45 225.993C1203.48 231.885 1215.69 236.257 1227.9 239.108C1238.4 241.579 1248.71 242.909 1258.63 242.909C1280.01 242.909 1299.28 237.017 1313.59 225.803C1330.39 212.498 1339.17 192.921 1339.17 168.782C1339.17 122.785 1296.61 105.489 1271.04 95.035Z" fill="url(#paint4_linear)"/>
<path d="M1257.49 150.156C1265.5 153.387 1272.56 156.048 1275.62 158.709C1278.86 161.56 1280.77 165.741 1280.77 169.733C1280.77 172.204 1280.01 176.005 1276.57 179.046C1262.45 191.971 1223.52 181.327 1204.05 167.832C1201 165.741 1197.18 166.692 1195.08 169.733C1193.36 172.394 1193.36 176.195 1196.8 178.476C1213.4 190.641 1235.92 197.673 1257.68 197.673C1259.78 197.673 1261.88 197.673 1263.97 197.483C1271.99 196.913 1279.62 193.872 1285.16 188.93C1291.08 183.418 1294.13 176.195 1293.75 168.402C1292.6 149.966 1277.72 144.073 1260.35 137.421C1248.13 132.669 1234.2 127.347 1221.8 116.513C1208.06 104.349 1204.62 89.5234 1204.24 79.2596C1203.48 63.1037 1209.39 46.7577 1220.08 35.1634C1239.74 13.8756 1271.23 10.6444 1313.98 25.2798C1316.08 26.2301 1318.37 25.85 1320.08 24.5195C1321.99 22.9989 1322.95 20.5281 1322.56 18.2472C1322.18 15.9664 1320.66 14.2557 1318.37 13.4955C1305.2 8.93379 1293.56 6.08272 1283.06 4.56217C1278.1 3.80189 1273.14 3.61182 1268.17 3.61182C1222.18 3.61182 1191.26 33.6429 1191.26 78.1192C1191.26 123.926 1231.15 139.702 1257.49 150.156Z" fill="url(#paint5_linear)"/>
<path d="M1799.49 222.762C1798.34 219.721 1794.15 218.01 1790.9 219.341C1778.5 224.853 1764.56 227.514 1749.3 227.514C1702.92 227.514 1667.04 204.706 1650.82 165.171C1639.75 137.611 1639.75 105.679 1650.82 77.929C1667.23 38.3945 1703.11 15.5862 1749.3 15.5862C1763.8 15.5862 1777.73 18.4372 1790.9 23.7591C1792.62 24.3293 1794.53 24.3293 1796.25 23.5691C1797.77 22.8088 1798.92 21.6684 1799.49 20.1478C1800.64 16.5365 1799.11 13.1152 1795.86 11.9748C1780.98 5.89255 1765.33 2.66138 1749.3 2.66138C1697.58 2.66138 1657.5 28.3208 1639.18 73.1773C1626.77 103.398 1626.77 139.512 1639.18 170.113C1657.31 214.779 1697.58 240.439 1749.3 240.439C1765.71 240.439 1781.36 237.398 1795.86 231.505H1796.05C1799.49 229.795 1800.83 226.184 1799.49 222.762Z" fill="url(#paint6_linear)"/>
<path d="M1749.3 60.6322C1763.04 60.6322 1772.96 63.1032 1784.79 69.3755C1787.85 70.896 1791.47 69.9457 1793.19 67.0946L1793.38 66.9046C1794.91 63.6734 1793.96 59.872 1790.9 58.1614C1777.54 50.7486 1765.9 47.7075 1749.3 47.7075C1718 47.7075 1693.19 64.2436 1682.5 91.8037C1675.06 110.621 1675.06 132.479 1682.5 151.676C1693 179.046 1718 195.392 1749.3 195.392C1765.71 195.392 1777.54 192.541 1790.9 184.938C1792.24 183.988 1793.38 182.657 1793.76 180.946C1794.15 179.426 1793.96 177.715 1793.19 176.385C1791.47 173.154 1788.04 172.013 1784.6 173.724C1772.96 180.186 1763.23 182.657 1749.3 182.657C1713.99 182.657 1699.87 160.229 1694.52 146.924C1688.23 130.958 1688.23 112.141 1694.52 96.1753C1703.69 73.7471 1723.72 60.6322 1749.3 60.6322Z" fill="url(#paint7_linear)"/>
<path d="M1115.5 208.887C1114.73 206.416 1112.25 204.705 1109.39 204.705H1039.73C1036.68 204.705 1034.2 206.416 1033.62 208.887L1025.23 228.844C1024.46 230.364 1024.27 232.075 1025.04 233.786C1025.8 235.686 1027.33 237.017 1029.04 237.587C1030.76 238.157 1032.67 238.157 1034.2 237.207C1035.53 236.447 1036.68 235.116 1037.06 233.596L1043.74 217.25H1104.81L1111.68 233.596C1112.82 236.257 1115.11 237.777 1117.6 237.777C1118.36 237.777 1119.12 237.587 1119.89 237.397C1121.41 236.827 1122.75 235.686 1123.51 233.976C1124.28 232.265 1124.47 230.555 1123.7 228.844L1115.5 208.887Z" fill="url(#paint8_linear)"/>
<path d="M1080.76 4.18153C1079.81 1.52055 1077.33 0 1074.46 0C1071.79 0 1069.5 1.71063 1068.36 4.37161L976.37 229.034C975.606 230.555 975.415 232.265 976.179 233.976C976.942 235.877 978.278 237.207 979.996 237.777C981.904 238.348 983.813 238.348 985.339 237.397C986.675 236.637 987.821 235.306 988.393 233.786L1074.46 23.5686L1160.54 233.786C1161.11 235.306 1162.06 236.637 1163.59 237.397C1164.54 237.967 1165.5 238.157 1166.64 238.157C1167.41 238.157 1168.17 237.967 1168.93 237.777C1170.46 237.207 1171.61 236.257 1172.37 234.736C1173.13 233.026 1173.32 231.125 1172.56 229.414L1080.76 4.18153Z" fill="url(#paint9_linear)"/>
<path d="M1051.37 166.121C1051.37 169.542 1054.43 172.393 1058.05 172.393H1091.07C1094.89 172.393 1097.75 169.542 1097.75 166.121C1097.75 165.361 1097.75 164.601 1097.18 163.46L1080.95 123.545C1079.43 119.934 1075.8 118.414 1072.17 119.934C1069.12 121.075 1067.59 124.876 1068.74 128.107L1081.91 160.039H1058.24C1054.43 159.849 1051.37 162.7 1051.37 166.121Z" fill="url(#paint10_linear)"/>
<path d="M668.725 91.8038L668.535 91.6138C667.199 90.0932 665.29 89.1428 663.191 89.1428C659.374 89.1428 656.511 91.9939 656.511 95.6052V234.736C656.511 236.637 657.275 238.348 658.801 239.488C659.946 240.438 661.664 241.009 663.191 241.009C667.008 241.009 669.87 238.348 669.87 234.546V116.133L755.179 238.348L755.37 238.538C756.896 240.248 758.805 241.009 760.522 241.009C762.049 241.009 763.385 240.438 764.53 239.678C767.393 237.587 768.156 233.786 766.248 230.555L668.725 91.8038Z" fill="url(#paint11_linear)"/>
<path d="M801.173 4.94263C797.356 4.94263 794.493 7.79367 794.493 11.5951V234.927C794.493 238.538 797.356 241.389 801.173 241.389C804.99 241.389 807.852 238.729 807.852 234.927V11.5951C807.852 7.79367 804.99 4.94263 801.173 4.94263Z" fill="url(#paint12_linear)"/>
<path d="M618.342 4.94263C615.288 4.94263 611.853 7.22347 611.853 11.5951V234.927C611.853 238.538 614.716 241.389 618.342 241.389C621.968 241.389 624.831 238.729 624.831 234.927V11.5951C624.831 7.22347 621.395 4.94263 618.342 4.94263Z" fill="url(#paint13_linear)"/>
<path d="M756.324 156.999C756.896 156.999 757.469 156.999 758.232 156.809C761.286 156.048 763.385 153.387 763.385 150.346V11.4051C763.385 7.60373 760.522 4.75269 756.705 4.75269C752.888 4.75269 750.026 7.60373 750.026 11.4051V129.629L664.145 7.9839C663 6.0832 661.091 4.94277 658.992 4.94277C656.511 4.94277 654.221 6.46333 653.076 8.74416C651.931 10.8349 652.313 13.3058 653.648 15.2065L750.98 154.338C752.125 156.048 754.224 156.999 756.324 156.999Z" fill="url(#paint14_linear)"/>
<path d="M105.919 138.751H51.5283C47.7113 138.751 44.8486 141.602 44.8486 145.403V234.926C44.8486 238.538 47.7113 241.389 51.5283 241.389C55.3452 241.389 58.2079 238.728 58.2079 234.926V152.056H105.919C109.546 152.056 112.217 149.205 112.217 145.403C112.217 141.602 109.546 138.751 105.919 138.751Z" fill="url(#paint15_linear)"/>
<path d="M132.447 4.94263H6.67962C3.05354 4.94263 0 7.79365 0 11.2149V234.737C0 238.348 2.86269 241.199 6.67962 241.199C10.4965 241.199 13.3592 238.538 13.3592 234.737V17.8674H132.447C136.073 17.8674 138.745 15.0163 138.745 11.405C138.745 7.79366 136.073 4.94263 132.447 4.94263Z" fill="url(#paint16_linear)"/>
<path d="M132.447 49.6082H51.5283C47.9022 49.6082 44.8486 52.4592 44.8486 55.8804V100.737C44.8486 104.348 47.9022 107.389 51.5283 107.389H105.919C109.546 107.389 112.217 104.538 112.217 100.737C112.217 96.9355 109.546 94.0845 105.919 94.0845H58.2079V62.5329H132.447C136.073 62.5329 138.745 59.6818 138.745 56.0705C138.745 52.4592 136.073 49.6082 132.447 49.6082Z" fill="url(#paint17_linear)"/>
<path d="M216.611 153.386C215.275 151.676 213.366 150.916 211.267 150.916C210.122 150.916 208.977 151.296 207.832 151.866L207.259 152.246C205.541 153.957 204.778 155.857 205.16 157.758V234.926C205.16 238.538 208.023 241.579 211.458 241.579C214.893 241.579 218.137 238.348 218.137 234.926V176.575L264.322 238.348C265.276 239.868 266.994 241.009 268.902 241.199C270.62 241.389 272.529 241.009 273.864 239.868C276.727 237.587 277.109 233.596 275.01 230.935L216.611 153.386Z" fill="url(#paint18_linear)"/>
<path d="M267.757 150.916C301.919 144.834 328.064 113.853 328.064 78.4997C328.064 37.8247 295.239 4.5625 254.779 4.5625H166.608C163.173 4.5625 160.311 7.60362 160.311 11.2149V234.737C160.311 238.348 163.173 241.39 166.608 241.39C170.235 241.39 173.288 238.348 173.288 234.737V17.8674H254.97C287.987 17.8674 314.896 45.0474 314.896 78.4997C314.896 111.762 287.987 138.752 254.97 138.752C251.344 138.752 248.672 141.603 248.672 145.404C248.672 147.115 249.245 148.635 250.39 149.776L319.476 238.538C320.812 240.249 322.53 241.199 324.438 241.199C325.965 241.199 327.492 240.629 328.828 239.679C330.164 238.729 330.927 237.398 331.309 235.878C331.691 234.167 331.118 232.266 329.973 230.936L267.757 150.916Z" fill="url(#paint19_linear)"/>
<path d="M251.154 94.4646H238.558C234.741 94.4646 231.878 97.3157 231.878 100.737C231.878 104.348 234.741 107.009 238.558 107.009H251.154C267.758 107.009 280.735 94.4646 280.735 78.4987C280.735 62.3428 267.758 49.6082 251.154 49.6082H211.649C208.023 49.6082 205.16 52.4592 205.16 56.0705C205.16 59.6818 207.832 62.5329 211.649 62.5329H251.154C260.696 62.5329 267.758 69.3754 267.758 78.4987C267.758 87.432 260.505 94.4646 251.154 94.4646Z" fill="url(#paint20_linear)"/>
<path d="M1513.22 49.6082H1456.92C1453.49 49.6082 1450.62 52.4592 1450.62 55.8804V234.736C1450.62 238.157 1453.49 241.008 1456.92 241.008C1460.36 241.008 1463.22 238.157 1463.22 234.736V62.723H1513.03C1516.46 62.723 1519.33 59.6818 1519.33 55.8804C1519.52 52.4592 1516.85 49.6082 1513.22 49.6082Z" fill="url(#paint21_linear)"/>
<path d="M1412.45 49.6082H1354.25C1350.81 49.6082 1347.95 52.4592 1347.95 55.8804C1347.95 59.6818 1350.81 62.723 1354.25 62.723H1405.77V234.736C1405.77 238.347 1408.64 241.008 1412.45 241.008C1415.89 241.008 1418.75 238.157 1418.75 234.736V55.8804C1418.75 52.4592 1415.89 49.6082 1412.45 49.6082Z" fill="url(#paint22_linear)"/>
<path d="M1513.03 5.32324H1354.44C1351 5.32324 1348.14 8.1743 1348.14 11.5956C1348.14 15.0168 1351 17.8678 1354.44 17.8678H1513.03C1516.66 17.8678 1519.71 15.0168 1519.71 11.5956C1519.71 8.1743 1516.66 5.32324 1513.03 5.32324Z" fill="url(#paint23_linear)"/>
<path d="M1001.18 55.8804C1001.18 52.4592 998.317 49.6082 994.882 49.6082H938.582C935.147 49.6082 932.284 52.4592 932.284 55.8804V234.736C932.284 238.157 935.147 241.008 938.582 241.008C942.017 241.008 944.88 238.157 944.88 234.736V62.723H994.691C998.317 62.913 1001.18 59.8719 1001.18 55.8804Z" fill="url(#paint24_linear)"/>
<path d="M893.924 49.6082H837.815C834.38 49.6082 831.517 52.4592 831.517 55.8804C831.517 59.6818 834.38 62.723 837.815 62.723H887.435V234.736C887.435 238.347 890.298 241.008 894.115 241.008C897.55 241.008 900.413 238.157 900.413 234.736V55.8804C900.222 52.4592 897.55 49.6082 893.924 49.6082Z" fill="url(#paint25_linear)"/>
<path d="M837.815 17.8678H994.5C998.126 17.8678 1001.18 15.0168 1001.18 11.5956C1001.18 8.1743 998.317 5.32324 994.5 5.32324H837.815C834.38 5.32324 831.517 8.1743 831.517 11.5956C831.517 15.0168 834.38 17.8678 837.815 17.8678Z" fill="url(#paint26_linear)"/>
<defs>
<linearGradient id="paint0_linear" x1="-0.0138336" y1="122.607" x2="1800.02" y2="122.607" gradientUnits="userSpaceOnUse">
<stop stop-color="#EC008C"/>
<stop offset="0.5933" stop-color="#9B096E"/>
<stop offset="0.989" stop-color="#4C2A7A"/>
<stop offset="1" stop-color="#4C2A7A"/>
</linearGradient>
<linearGradient id="paint1_linear" x1="0.00135294" y1="122.607" x2="1800.02" y2="122.607" gradientUnits="userSpaceOnUse">
<stop stop-color="#EC008C"/>
<stop offset="0.5933" stop-color="#9B096E"/>
<stop offset="0.989" stop-color="#4C2A7A"/>
<stop offset="1" stop-color="#4C2A7A"/>
</linearGradient>
<linearGradient id="paint2_linear" x1="-0.000189854" y1="122.607" x2="1800.02" y2="122.607" gradientUnits="userSpaceOnUse">
<stop stop-color="#EC008C"/>
<stop offset="0.5933" stop-color="#9B096E"/>
<stop offset="0.989" stop-color="#4C2A7A"/>
<stop offset="1" stop-color="#4C2A7A"/>
</linearGradient>
<linearGradient id="paint3_linear" x1="-4.1214e-05" y1="122.607" x2="1800.02" y2="122.607" gradientUnits="userSpaceOnUse">
<stop stop-color="#EC008C"/>
<stop offset="0.5933" stop-color="#9B096E"/>
<stop offset="0.989" stop-color="#4C2A7A"/>
<stop offset="1" stop-color="#4C2A7A"/>
</linearGradient>
<linearGradient id="paint4_linear" x1="0.000853108" y1="122.607" x2="1800.02" y2="122.607" gradientUnits="userSpaceOnUse">
<stop stop-color="#EC008C"/>
<stop offset="0.5933" stop-color="#9B096E"/>
<stop offset="0.989" stop-color="#4C2A7A"/>
<stop offset="1" stop-color="#4C2A7A"/>
</linearGradient>
<linearGradient id="paint5_linear" x1="-0.000729865" y1="122.607" x2="1800.02" y2="122.607" gradientUnits="userSpaceOnUse">
<stop stop-color="#EC008C"/>
<stop offset="0.5933" stop-color="#9B096E"/>
<stop offset="0.989" stop-color="#4C2A7A"/>
<stop offset="1" stop-color="#4C2A7A"/>
</linearGradient>
<linearGradient id="paint6_linear" x1="-0.000393398" y1="122.607" x2="1800.02" y2="122.607" gradientUnits="userSpaceOnUse">
<stop stop-color="#EC008C"/>
<stop offset="0.5933" stop-color="#9B096E"/>
<stop offset="0.989" stop-color="#4C2A7A"/>
<stop offset="1" stop-color="#4C2A7A"/>
</linearGradient>
<linearGradient id="paint7_linear" x1="-0.00550596" y1="122.607" x2="1800.02" y2="122.607" gradientUnits="userSpaceOnUse">
<stop stop-color="#EC008C"/>
<stop offset="0.5933" stop-color="#9B096E"/>
<stop offset="0.989" stop-color="#4C2A7A"/>
<stop offset="1" stop-color="#4C2A7A"/>
</linearGradient>
<linearGradient id="paint8_linear" x1="0.00080727" y1="122.607" x2="1800.02" y2="122.607" gradientUnits="userSpaceOnUse">
<stop stop-color="#EC008C"/>
<stop offset="0.5933" stop-color="#9B096E"/>
<stop offset="0.989" stop-color="#4C2A7A"/>
<stop offset="1" stop-color="#4C2A7A"/>
</linearGradient>
<linearGradient id="paint9_linear" x1="0.000380353" y1="122.607" x2="1800.02" y2="122.607" gradientUnits="userSpaceOnUse">
<stop stop-color="#EC008C"/>
<stop offset="0.5933" stop-color="#9B096E"/>
<stop offset="0.989" stop-color="#4C2A7A"/>
<stop offset="1" stop-color="#4C2A7A"/>
</linearGradient>
<linearGradient id="paint10_linear" x1="-0.00738807" y1="122.607" x2="1800.02" y2="122.607" gradientUnits="userSpaceOnUse">
<stop stop-color="#EC008C"/>
<stop offset="0.5933" stop-color="#9B096E"/>
<stop offset="0.989" stop-color="#4C2A7A"/>
<stop offset="1" stop-color="#4C2A7A"/>
</linearGradient>
<linearGradient id="paint11_linear" x1="-0.000194374" y1="122.607" x2="1800.02" y2="122.607" gradientUnits="userSpaceOnUse">
<stop stop-color="#EC008C"/>
<stop offset="0.5933" stop-color="#9B096E"/>
<stop offset="0.989" stop-color="#4C2A7A"/>
<stop offset="1" stop-color="#4C2A7A"/>
</linearGradient>
<linearGradient id="paint12_linear" x1="-0.0081917" y1="122.607" x2="1800.03" y2="122.607" gradientUnits="userSpaceOnUse">
<stop stop-color="#EC008C"/>
<stop offset="0.5933" stop-color="#9B096E"/>
<stop offset="0.989" stop-color="#4C2A7A"/>
<stop offset="1" stop-color="#4C2A7A"/>
</linearGradient>
<linearGradient id="paint13_linear" x1="-0.00267435" y1="122.607" x2="1800.02" y2="122.607" gradientUnits="userSpaceOnUse">
<stop stop-color="#EC008C"/>
<stop offset="0.5933" stop-color="#9B096E"/>
<stop offset="0.989" stop-color="#4C2A7A"/>
<stop offset="1" stop-color="#4C2A7A"/>
</linearGradient>
<linearGradient id="paint14_linear" x1="0.000644695" y1="122.608" x2="1800.02" y2="122.608" gradientUnits="userSpaceOnUse">
<stop stop-color="#EC008C"/>
<stop offset="0.5933" stop-color="#9B096E"/>
<stop offset="0.989" stop-color="#4C2A7A"/>
<stop offset="1" stop-color="#4C2A7A"/>
</linearGradient>
<linearGradient id="paint15_linear" x1="-0.000248341" y1="122.607" x2="1800.02" y2="122.607" gradientUnits="userSpaceOnUse">
<stop stop-color="#EC008C"/>
<stop offset="0.5933" stop-color="#9B096E"/>
<stop offset="0.989" stop-color="#4C2A7A"/>
<stop offset="1" stop-color="#4C2A7A"/>
</linearGradient>
<linearGradient id="paint16_linear" x1="0" y1="122.607" x2="1800.02" y2="122.607" gradientUnits="userSpaceOnUse">
<stop stop-color="#EC008C"/>
<stop offset="0.5933" stop-color="#9B096E"/>
<stop offset="0.989" stop-color="#4C2A7A"/>
<stop offset="1" stop-color="#4C2A7A"/>
</linearGradient>
<linearGradient id="paint17_linear" x1="-0.00023361" y1="122.607" x2="1800.02" y2="122.607" gradientUnits="userSpaceOnUse">
<stop stop-color="#EC008C"/>
<stop offset="0.5933" stop-color="#9B096E"/>
<stop offset="0.989" stop-color="#4C2A7A"/>
<stop offset="1" stop-color="#4C2A7A"/>
</linearGradient>
<linearGradient id="paint18_linear" x1="5.15818e-05" y1="122.607" x2="1800.02" y2="122.607" gradientUnits="userSpaceOnUse">
<stop stop-color="#EC008C"/>
<stop offset="0.5933" stop-color="#9B096E"/>
<stop offset="0.989" stop-color="#4C2A7A"/>
<stop offset="1" stop-color="#4C2A7A"/>
</linearGradient>
<linearGradient id="paint19_linear" x1="-0.000357048" y1="122.607" x2="1800.02" y2="122.607" gradientUnits="userSpaceOnUse">
<stop stop-color="#EC008C"/>
<stop offset="0.5933" stop-color="#9B096E"/>
<stop offset="0.989" stop-color="#4C2A7A"/>
<stop offset="1" stop-color="#4C2A7A"/>
</linearGradient>
<linearGradient id="paint20_linear" x1="0.000102281" y1="122.607" x2="1800.02" y2="122.607" gradientUnits="userSpaceOnUse">
<stop stop-color="#EC008C"/>
<stop offset="0.5933" stop-color="#9B096E"/>
<stop offset="0.989" stop-color="#4C2A7A"/>
<stop offset="1" stop-color="#4C2A7A"/>
</linearGradient>
<linearGradient id="paint21_linear" x1="-0.00204894" y1="122.607" x2="1800.02" y2="122.607" gradientUnits="userSpaceOnUse">
<stop stop-color="#EC008C"/>
<stop offset="0.5933" stop-color="#9B096E"/>
<stop offset="0.989" stop-color="#4C2A7A"/>
<stop offset="1" stop-color="#4C2A7A"/>
</linearGradient>
<linearGradient id="paint22_linear" x1="-0.00436877" y1="122.607" x2="1800.02" y2="122.607" gradientUnits="userSpaceOnUse">
<stop stop-color="#EC008C"/>
<stop offset="0.5933" stop-color="#9B096E"/>
<stop offset="0.989" stop-color="#4C2A7A"/>
<stop offset="1" stop-color="#4C2A7A"/>
</linearGradient>
<linearGradient id="paint23_linear" x1="0.000169819" y1="122.608" x2="1800.02" y2="122.608" gradientUnits="userSpaceOnUse">
<stop stop-color="#EC008C"/>
<stop offset="0.5933" stop-color="#9B096E"/>
<stop offset="0.989" stop-color="#4C2A7A"/>
<stop offset="1" stop-color="#4C2A7A"/>
</linearGradient>
<linearGradient id="paint24_linear" x1="0.00253024" y1="122.607" x2="1800.01" y2="122.607" gradientUnits="userSpaceOnUse">
<stop stop-color="#EC008C"/>
<stop offset="0.5933" stop-color="#9B096E"/>
<stop offset="0.989" stop-color="#4C2A7A"/>
<stop offset="1" stop-color="#4C2A7A"/>
</linearGradient>
<linearGradient id="paint25_linear" x1="-0.00163555" y1="122.607" x2="1800.02" y2="122.607" gradientUnits="userSpaceOnUse">
<stop stop-color="#EC008C"/>
<stop offset="0.5933" stop-color="#9B096E"/>
<stop offset="0.989" stop-color="#4C2A7A"/>
<stop offset="1" stop-color="#4C2A7A"/>
</linearGradient>
<linearGradient id="paint26_linear" x1="-0.000149631" y1="122.608" x2="1800.02" y2="122.608" gradientUnits="userSpaceOnUse">
<stop stop-color="#EC008C"/>
<stop offset="0.5933" stop-color="#9B096E"/>
<stop offset="0.989" stop-color="#4C2A7A"/>
<stop offset="1" stop-color="#4C2A7A"/>
</linearGradient>
</defs>
</svg>
